<svg id="eOfr6UERHB31" xmlns="http://www.w3.org/2000/svg" xmlns:xlink="http://www.w3.org/1999/xlink" viewBox="0 0 666.66669 666.66669" shape-rendering="geometricPrecision" text-rendering="geometricPrecision"><g transform="matrix(1.33333 0 0-1.33333-144.021282 802.090006)"><g><g clip-path="url(#eOfr6UERHB399)"><g transform="translate(256.474 400.569)"><path d="M0,0c4.757-2.017,8.677-5.928,13.707-7.111c3.802-.894,8.016.005,11.157,2.321c1.548,1.143,2.423,2.999,3.034,5.024h.002l.017.059c.104.348.201.699.291,1.053L31.09,11.752l-7.151,1.122-1.903-4.38c-1.015,2.146-2.031,4.293-3.046,6.439-.118.25-.249.514-.487.656-.293.175-.664.115-.999.05-1.032-.2-2.065-.401-3.098-.601-.481-.093-1.013-.219-1.288-.625-.212-.314-.215-.72-.202-1.098.066-1.928.36-3.848.873-5.708-1.732,1.613-3.29,3.413-4.637,5.358-1.871-1.018-3.821-1.891-5.827-2.608C4.61,7.785,6.359,5.445,8.462,3.485C6.311,3.77,4.226,4.539,2.406,5.72C1.604,3.813,0.802,1.907,0,0" fill="#002c48"/></g><g transform="translate(314.454 374.287)"><path d="M0,0c-3.381.312-7.922,1.159-10.484,2.925-2.534,1.747-4.709,3.966-6.633,6.372l-4.2-6.71c5.9-5.514,13.381-9.32,21.317-10.818Z" fill="#002c48"/></g><g transform="translate(273.778 393.262)"><path d="M0,0L10.612,7.6c2.945-2.919,5.459-5.715,8.466-8.67.966-.951,1.933-1.903,2.895-2.851c1.276-1.261,2.546-2.514,3.794-3.76-1.194-4.673-3.403-9.088-6.427-12.845-2.414,1.85-4.809,3.634-7.088,5.495-3.839,3.144-7.338,6.512-10.01,10.826-.191.303-.374.608-.555.921C1.074,-2.217,0.489,-1.128,0,0" fill="#fff"/></g><g transform="translate(276.02 389.058)"><path d="M0,0c3.739-.856,7.416-1.836,11.189-2.626c2.146,1.839,3.928,3.702,5.647,5.761.967-.952,1.934-1.903,2.895-2.852-1.76-2.79-3.816-5.398-6.126-7.759-1.147-1.17-2.353-2.283-3.595-3.35C6.171,-7.683,2.672,-4.314,0,0" fill="#002c48"/></g><g transform="translate(274.646 403.326)"><path d="M0,0c-.479-1.782-.052-3.784,1.112-5.216-.515.634-.237,2.735-.147,3.49.147,1.237.512,2.458,1.162,3.526.451.738,1.726,2.437-.034,1.319C1.064,2.465,0.308,1.147,0,0" fill="#08395c"/></g><g transform="translate(428.397 331.157)"><path d="M0,0c-4.184,3.032-7.126,7.723-11.763,10.003-3.505,1.725-7.813,1.793-11.394.24-1.764-.765-3.034-2.379-4.083-4.215h-.002l-.029-.054c-.18-.315-.353-.635-.521-.96l-5.142-9.495l6.717-2.697l2.838,3.842l1.525-6.958c.059-.27.127-.557.326-.748.247-.237.621-.262.963-.273c1.051-.037,2.102-.073,3.154-.109.49-.017,1.036-.014,1.395.32.277.258.371.653.443,1.024.368,1.894.512,3.831.43,5.759c1.326-1.96,2.44-4.064,3.317-6.262c2.052.573,4.148.986,6.264,1.235-.676,2.795-1.856,5.467-3.466,7.849c2.032-.759,3.892-1.977,5.401-3.536C-2.418,-3.356,-1.209,-1.678,0,0" fill="#002c48"/></g><g transform="translate(378.685 378.201)"><path d="M0,0c-.005-2.742.13-5.714.773-8.38c3.289-.989,5.571-2.717,7.89-5.251c2.077-2.271,3.7-4.921,5.035-7.698l5.597,5.598C14.591,-8.75,7.796,-3.184,0,0" fill="#002c48"/></g><g transform="translate(413.171 342.158)"><path d="M0,0l-12.046-5.027c-2.215,3.506-4.038,6.794-6.306,10.348-.729,1.144-1.458,2.288-2.182,3.428-.961,1.514-1.918,3.02-2.854,4.514c2.211,4.287,5.353,8.093,9.143,11.077c1.938-2.344,3.872-4.62,5.676-6.944c3.036-3.925,5.691-7.992,7.327-12.796.118-.338.228-.676.334-1.021C-0.55,2.402,-0.224,1.209,0,0" fill="#fff"/></g><g transform="translate(411.93 346.758)"><path d="M0,0c-3.452,1.673-6.815,3.452-10.316,5.068-2.504-1.31-4.657-2.727-6.794-4.347-.729,1.144-1.458,2.288-2.182,3.427c2.34,2.325,4.93,4.405,7.71,6.188c1.38.884,2.805,1.698,4.254,2.459C-4.291,8.871,-1.637,4.804,0,0" fill="#002c48"/></g><g transform="translate(332.821 313.652)"><path d="M0,0c-.134,2.76.369,12.508-4.638,11.175-2.502-.666-2.941-3.178-3.167-5.452-.264-2.651-.344-5.35-.441-8.013-.102-2.781-.651-6.249,1.052-8.687.777-1.112,2.108-2.336,3.562-2.1C1.554,-12.233,0.164,-3.364,0,0" fill="#002c48"/></g><g transform="translate(328.281 308.646)"><path d="M0,0c-.037-.102-.082-.208-.134-.317-.636-1.369-1.702-2.48-2.264-3.954-.545-1.433-.912-2.931-1.246-4.42-.614-2.757-1.18-5.533-1.441-8.342-.175-1.877-.195-3.827.155-5.667.252-1.327.696-2.597,1.405-3.745.244-.395.516-.769.818-1.119h-5.867c-.101.463-.175.964-.223,1.481-.066.656-.098,1.344-.106,2.02-.025,1.616.065,3.191.052,4.27-.061,3.985.257,7.995,1.413,11.826.208.692.448,1.38.729,2.048.208.492.439.973.696,1.437.419.757.916,1.469,1.506,2.101C-3.326,-1.111,-1.706,-0.179,0,0" fill="#ededed"/></g><g transform="translate(340.51 281.081)"><path d="M0,0h-14.936c-.302.35-.574.725-.818,1.119-.709,1.149-1.153,2.419-1.405,3.746-.35,1.84-.33,3.79-.155,5.666.261,2.809.827,5.586,1.441,8.342.334,1.49.701,2.988,1.246,4.421.562,1.474,1.628,2.585,2.264,3.953.052.11.097.215.134.317.378.045.761.049,1.144.013c2.166-.208,4.043-1.702,5.231-3.526.212-.325.407-.663.586-1.006.346-.667.631-1.367.88-2.084.342-.973.61-1.974.867-2.972c1.03-3.993,1.901-8.031,2.605-12.098.256-1.466.493-2.935.708-4.405.07-.497.139-.989.208-1.486" fill="#fff"/></g><g transform="translate(336.122 302.043)"><path d="M0,0c-1.274-1.621-1.889-3.741-2.451-5.793-.13-.472-.546-.729-1.009-.769-1.792-.164-3.595-.367-5.391-.436-.826-.033-1.64-.049-2.214.664-.733.899-.684,2.527-1.095,3.602-.513,1.339-1.278,2.577-2.39,3.416.208.492.44.973.696,1.437c1.499-.912,2.537-2.349,3.204-4.092.277-.732.391-1.514.651-2.247.371-1.038.387-.855,1.507-.749c1.404.131,2.809.285,4.213.42.709,2.459,1.608,4.917,3.4,6.631.345-.667.63-1.368.879-2.084" fill="#002c48"/></g><g transform="translate(340.51 281.081)"><path d="M0,0h-20.803c-.232,1.062-.313,2.296-.329,3.501c1.066,1.217,2.206,2.369,3.485,3.363c2.251,1.75,5.015,2.991,7.864,2.898c3.278-.106,6.184-1.905,8.867-3.871C-0.574,3.933,-0.269,1.97,0,0" fill="#002c48"/></g><g transform="translate(344.833 275.381)"><path d="M0,0h-29.686c1.019,2.622,2.488,5.064,4.336,7.181.049.062.102.118.155.179c1.083,1.218,2.333,2.341,3.713,3.204c1.319.827,2.755,1.417,4.295,1.641c2.019.289,4.087-.085,6-.773c2.5-.904,4.771-2.378,6.656-4.246c1.307-1.299,2.43-2.785,3.31-4.401C-0.737,1.893,-0.326,0.961,0,0" fill="#fff"/></g><g transform="translate(344.833 275.381)"><path d="M0,0h-29.686c1.019,2.622,2.488,5.064,4.336,7.181.049-.516,10.939-5.088,13.907-5.495c3.419-.473,6.9.17,10.222,1.099C-0.737,1.893,-0.326,0.961,0,0" fill="#ededed"/></g><g transform="translate(368.027 313.652)"><path d="M0,0c-.134,2.76.369,12.508-4.638,11.175-2.502-.666-2.941-3.178-3.167-5.452-.264-2.651-.344-5.35-.441-8.013-.102-2.781-.651-6.249,1.052-8.687.777-1.112,2.108-2.336,3.562-2.1C1.554,-12.233,0.164,-3.364,0,0" fill="#002c48"/></g><g transform="translate(363.487 308.646)"><path d="M0,0c-.037-.102-.082-.208-.134-.317-.636-1.369-1.702-2.48-2.264-3.954-.545-1.433-.912-2.931-1.246-4.42-.614-2.757-1.18-5.533-1.441-8.342-.175-1.877-.195-3.827.155-5.667.252-1.327.696-2.597,1.405-3.745.244-.395.517-.769.817-1.119h-5.866c-.101.463-.175.964-.223,1.481-.066.656-.098,1.344-.106,2.02-.025,1.616.065,3.191.052,4.27-.061,3.985.257,7.995,1.413,11.826.208.692.448,1.38.729,2.048.208.492.439.973.696,1.437.419.757.916,1.469,1.506,2.101C-3.326,-1.111,-1.706,-0.179,0,0" fill="#ededed"/></g><g transform="translate(375.716 281.081)"><path d="M0,0h-14.937c-.3.35-.573.725-.817,1.119-.709,1.149-1.153,2.419-1.405,3.746-.35,1.84-.33,3.79-.155,5.666.261,2.809.827,5.586,1.441,8.342.334,1.49.701,2.988,1.246,4.421.562,1.474,1.628,2.585,2.264,3.953.052.11.097.215.134.317.378.045.761.049,1.144.013c2.166-.208,4.042-1.702,5.231-3.526.212-.325.407-.663.586-1.006.346-.667.631-1.367.879-2.084.343-.973.611-1.974.868-2.972c1.03-3.993,1.901-8.031,2.605-12.098.256-1.466.493-2.935.708-4.405.07-.497.139-.989.208-1.486" fill="#fff"/></g><g transform="translate(371.327 302.043)"><path d="M0,0c-1.274-1.621-1.889-3.741-2.451-5.793-.13-.472-.545-.729-1.009-.769-1.791-.164-3.595-.367-5.39-.436-.826-.033-1.641-.049-2.214.664-.733.899-.685,2.527-1.096,3.602-.513,1.339-1.278,2.577-2.389,3.416.207.492.439.973.696,1.437c1.498-.912,2.536-2.349,3.204-4.092.276-.732.39-1.514.651-2.247.371-1.038.387-.855,1.506-.749c1.405.131,2.809.285,4.214.42.708,2.459,1.608,4.917,3.399,6.631.346-.667.631-1.368.879-2.084" fill="#002c48"/></g><g transform="translate(375.716 281.081)"><path d="M0,0h-20.803c-.232,1.062-.313,2.296-.329,3.501c1.066,1.217,2.206,2.369,3.485,3.363c2.251,1.75,5.015,2.991,7.865,2.898c3.277-.106,6.183-1.905,8.866-3.871C-0.574,3.933,-0.269,1.97,0,0" fill="#002c48"/></g><g transform="translate(380.039 275.381)"><path d="M0,0h-29.685c1.018,2.622,2.487,5.064,4.335,7.181.049.062.102.118.155.179c1.083,1.218,2.333,2.341,3.713,3.204c1.319.827,2.756,1.417,4.295,1.641c2.019.289,4.087-.085,6-.773c2.5-.904,4.771-2.378,6.656-4.246c1.307-1.299,2.43-2.785,3.31-4.401C-0.737,1.893,-0.326,0.961,0,0" fill="#fff"/></g><g transform="translate(380.039 275.381)"><path d="M0,0h-29.685c1.018,2.622,2.487,5.064,4.335,7.181.049-.516,10.939-5.088,13.907-5.495c3.42-.473,6.9.17,10.222,1.099C-0.737,1.893,-0.326,0.961,0,0" fill="#ededed"/></g><g transform="translate(386.738 350.833)"><path d="M0,0c0-.721-.008-1.441-.021-2.162-.016-.997-.048-1.995-.089-2.992-.09-2.231-.228-4.458-.379-6.676-.203-2.96-.452-6.013-1.811-8.651-1.515-2.943-4.254-5.056-7.084-6.782-16.646-10.166-42.855-10.178-59.522,0-2.825,1.726-5.565,3.839-7.083,6.782-1.356,2.638-1.608,5.691-1.807,8.651-.123,1.803-.237,3.611-.326,5.422-.049,1.002-.09,2.007-.118,3.009-.012.501-.025.997-.037,1.498-.012.928-.016,1.856-.004,2.784.049,4.523.431,9.026,1.441,13.43c1.05,4.593,2.866,9.111,5.484,13.023c2.239,3.355,5.072,6.258,8.504,8.379c6.587,4.071,15.706,3.094,23.709,3.024c8.004.07,17.119,1.047,23.705-3.024c2.94-1.816,5.431-4.197,7.491-6.949c3.167-4.218,5.321-9.287,6.502-14.453.862-3.785,1.27-7.645,1.396-11.528C-0.017,1.86,0,0.928,0,0" fill="#fff"/></g><g transform="translate(386.738 350.833)"><path d="M0,0c0-.721-.008-1.441-.021-2.162-.016-.997-.048-1.995-.089-2.992-3.428-.264-6.884-.191-10.247.411-1.082.196-1.636,1.319-1.738,2.28-.586,5.602-2.911,11.781-7.136,15.625-4.841,4.404-11.778,4.392-17.905,3.733-6.269-.676-13.479-1.657-18.51-5.802-4.8-3.948-6.925-10.23-8.904-15.901-.366-1.05-1.249-1.828-2.409-1.832-3.734-.02-7.455-.004-11.163.232-.049,1.002-.09,2.007-.118,3.009-.012.501-.025.997-.037,1.498c3.167-.049,6.335-.049,9.498.138c1.933,5.52,4.185,11.098,8.426,15.254c4.34,4.255,10.235,6.176,16.097,7.21c5.81,1.026,11.859,1.824,17.725.867c5.573-.908,10.316-3.88,13.605-8.451c2.854-3.961,4.169-8.549,5.142-13.239C-5.167,-0.155,-2.582,-0.159,0,0" fill="#002c48"/></g><g transform="translate(378.791 379.599)"><path d="M0,0c-.932-.306-1.889-.558-2.841-.802-9.836-2.54-19.83-4.677-29.979-5.162-9.73-.468-18.771,1.006-28.009,3.941-.801.256-1.693.411-2.581.594c2.24,3.354,5.073,6.257,8.505,8.378c6.587,4.071,15.706,3.094,23.709,3.025c8.004.069,17.118,1.046,23.705-3.025C-4.551,5.133,-2.06,2.752,0,0" fill="#ededed"/></g><g transform="translate(330.155 347.744)"><path d="M0,0c-.979-6.562,1.64-13.532,6.651-17.879c5.011-4.348,12.24-5.962,18.644-4.229c4.388,1.186,8.419,3.942,10.735,7.854c2.836,4.791,2.87,10.862,1.182,16.168-1.407,4.421-4.011,8.541-7.757,11.279C18.174,21.441,1.979,13.256,0,0" fill="#ededed"/></g><g transform="translate(332.249 347.399)"><path d="M0,0c-.872-5.841,1.46-12.046,5.921-15.917c4.461-3.87,10.896-5.307,16.597-3.765c3.907,1.057,7.495,3.51,9.557,6.993c2.524,4.265,2.555,9.669,1.052,14.393-1.252,3.936-3.571,7.604-6.905,10.042C16.179,19.087,1.762,11.801,0,0" fill="#ccc"/></g><g transform="translate(334.62 347.008)"><path d="M0,0c-.75-5.025,1.256-10.364,5.094-13.694s9.375-4.566,14.28-3.239c3.361.909,6.448,3.019,8.222,6.016c2.172,3.669,2.198,8.319.905,12.383-1.078,3.386-3.072,6.542-5.941,8.639C13.919,16.422,1.516,10.153,0,0" fill="#002c48"/></g><g transform="translate(337.771 346.489)"><path d="M0,0c-.589-3.942.985-8.129,3.996-10.741c3.01-2.612,7.352-3.581,11.199-2.541c2.637.714,5.058,2.369,6.449,4.719c1.704,2.878,1.725,6.525.71,9.712-.845,2.657-2.409,5.132-4.659,6.777C10.918,12.881,1.189,7.963,0,0" fill="#85e2ea"/></g><g transform="translate(340.35 346.064)"><path d="M0,0c-.456-3.054.764-6.299,3.096-8.323c2.333-2.023,5.698-2.775,8.679-1.969c2.043.553,3.919,1.836,4.997,3.657c1.32,2.23,1.336,5.056.55,7.526-.655,2.058-1.867,3.976-3.611,5.251C8.46,9.981,0.921,6.171,0,0" fill="#002c48"/></g><g transform="translate(341.332 345.902)"><path d="M0,0c-.405-2.716.679-5.602,2.753-7.401c2.075-1.8,5.067-2.468,7.718-1.751c1.817.491,3.486,1.632,4.444,3.251c1.174,1.984,1.189,4.497.49,6.693-.583,1.831-1.661,3.536-3.212,4.669C7.523,8.876,0.819,5.487,0,0" fill="#b6faff"/></g><g transform="translate(329.037 331.86)"><path d="M0,0c-1.649,1.256-2.71,2.863-4.055,4.387-.649.736-1.938-.04-1.643-.956.682-2.126,2.421-4.106,4.007-5.622C-0.259,-3.56,1.634,-1.244,0,0" fill="#002c48"/></g><g transform="translate(325.199 329.14)"><path d="M0,0c-.869.705-1.571,1.543-2.386,2.297-.267.246-1.48,1.325-1.893.835-.509-.604.033-1.77.404-2.314.62-.909,1.438-1.707,2.26-2.432C-0.505,-2.593,1.129,-0.916,0,0" fill="#002c48"/></g><g transform="translate(370.872 334.555)"><path d="M0,0c-.567-.572-.87-1.431-1.252-2.137-.402-.742-.942-1.406-1.333-2.148-.537-1.017.709-1.942,1.558-1.203.683.594,1.217,1.466,1.687,2.234.456.743.989,1.684.995,2.568C1.662,0.153,0.589,0.595,0,0" fill="#002c48"/></g><g transform="translate(374.076 332.866)"><path d="M0,0c-.414-.846-.868-1.69-1.353-2.497-.48-.799-1.181-1.502-1.577-2.339-.472-.998.512-2.167,1.566-1.566.947.539,1.625,1.53,2.242,2.408.658.935,1.115,1.918,1.494,2.994C2.856,0.376,0.647,1.323,0,0" fill="#002c48"/></g><g transform="translate(381.682 386.132)"><path d="M0,0c-7.768-4.865-17.114-7.873-25.085-9.042-11.957-1.75-29.006-.325-41.748,6.018-11.232,5.589-19.109,15.001-17.2,29.416.81,6.111,3.469,11.517,7.36,15.938c2.866,3.257,6.404,5.976,10.369,8.052.932.489,1.881.941,2.846,1.36c1.237.546,2.503,1.034,3.782,1.474c5.992,2.06,12.371,3.069,18.706,3.639c7.665.692,16.809.574,25.512-1.115c1.328-.257,2.639-.55,3.937-.884c8.871-2.267,16.952-6.362,22.069-13.141c2.683-3.549,4.551-7.832,5.296-12.978C17.697,15.946,10.202,6.375,0,0" fill="#fff"/></g><g transform="translate(381.682 386.132)"><path d="M0,0c-7.768-4.865-17.114-7.873-25.085-9.042-11.957-1.75-29.006-.325-41.748,6.018-11.232,5.589-19.109,15.001-17.2,29.416.81,6.111,3.469,11.517,7.36,15.938c5.142-3.22,8.041-9.53,8.248-15.673.224-6.709-2.267-13.227-5.439-19.142c10.882-8.48,25.025-12.245,38.813-11.749c13.788.501,27.231,5.056,39.285,11.765-5.419,5.692-6.037,14.831-2.972,22.069c2.011,4.747,5.345,8.757,9.286,12.115c2.683-3.549,4.551-7.832,5.296-12.978C17.697,15.946,10.202,6.375,0,0" fill="#ededed"/></g><g transform="translate(294.221 407.684)"><path d="M0,0c.187-3.414.921-6.923,2.97-9.66.943-1.259,2.233-2.365,3.784-2.62c2.911-.479,5.427,2.128,6.704,4.786c2.408,5.009,2.479,10.957.816,16.26-1.173,3.74-5.143,8.452-9.212,5.216C1.159,10.88,-0.255,4.648,0,0" fill="#002c48"/></g><g transform="translate(293.169 407.843)"><path d="M0,0c.166-3.014.813-6.112,2.623-8.529.832-1.112,1.97-2.088,3.341-2.313c2.57-.423,4.791,1.879,5.919,4.226c2.125,4.422,2.188,9.675.72,14.356-1.036,3.302-4.541,7.462-8.134,4.606C1.024,9.606,-0.225,4.104,0,0" fill="#fff"/></g><g transform="translate(400.966 408.53)"><path d="M0,0c-.187-3.413-.921-6.923-2.97-9.66-.943-1.259-2.233-2.364-3.784-2.62-2.911-.478-5.427,2.128-6.704,4.787-2.408,5.008-2.479,10.957-.816,16.259c1.173,3.741,5.143,8.452,9.212,5.217C-1.16,10.88,0.255,4.648,0,0" fill="#002c48"/></g><g transform="translate(402.017 408.69)"><path d="M0,0c-.165-3.014-.813-6.113-2.622-8.529-.832-1.112-1.971-2.088-3.341-2.313-2.57-.423-4.791,1.879-5.919,4.226-2.126,4.422-2.188,9.674-.721,14.356c1.037,3.302,4.541,7.462,8.134,4.606C-1.023,9.606,0.225,4.104,0,0" fill="#fff"/></g><g transform="translate(381.682 386.132)"><path d="M0,0c-1.278-.802-2.601-1.551-3.953-2.251-6.856-3.554-14.472-5.813-21.132-6.791-10.442-1.526-24.764-.635-36.712,3.839-1.735.648-3.42,1.372-5.036,2.179c1.148,4.701,1.747,9.566,2.312,14.386.92,7.866,1.792,15.739,2.61,23.616.053.509.114,1.05.427,1.458.273.354.696.557,1.103.744c1.112.505,2.235.982,3.371,1.433-.965,1.828-1.913,3.668-2.849,5.512-1.185,2.333-2.341,4.674-3.363,7.08-.073.175-.155.354-.236.537c1.237.546,2.503,1.034,3.782,1.474.13-.224.248-.436.366-.627c1.29-2.113,2.471-4.283,3.668-6.448c1.083-1.954,2.166-3.909,3.245-5.867c10.653,3.453,22.064,4.552,33.178,3.184.688,2.137,1.36,4.278,2.032,6.424.61,1.942,1.147,3.908,1.729,5.858c1.328-.257,2.639-.55,3.937-.884-.004-.02-.008-.044-.012-.064-.387-2.044-.884-4.072-1.376-6.091-.492-2.003-1.059-3.993-1.669-5.968.171-.028.342-.057.513-.089c1.03-.204,2.084-.436,2.947-1.026c1.681-1.144,2.264-3.31,2.72-5.288C-5.598,24.218,-2.801,12.111,0,0" fill="#002c48"/></g><g transform="translate(377.729 383.881)"><path d="M0,0c-6.856-3.554-14.473-5.813-21.133-6.791-10.442-1.526-24.763-.635-36.712,3.839-.219,4.771.741,10.088,1.014,13.711.354,4.772.92,9.571,2.524,14.078c1.608,4.502,4.344,8.724,8.321,11.382c4.926,3.29,11.126,3.847,17.029,4.307c5.219.408,10.894.697,15.217-2.247c3.391-2.312,5.304-6.216,6.786-10.043C-3.44,19.178,-1.515,9.624,0,0" fill="#08395c"/></g><g transform="translate(323.129 402.954)"><path d="M0,0c-.285-.916-.2-2.162.69-2.517.659-.263,1.386.121,1.977.513c1.175.778,2.294,1.641,3.346,2.579.516-1.024,1.124-2.001,1.815-2.916.578-.766,1.256-1.517,2.161-1.838.904-.321,2.079-.058,2.507.801.43.86-.02,1.881-.465,2.734-.787,1.509-1.597,3.05-2.845,4.207C5.587,6.903,1.274,4.097,0,0" fill="#85e2ea"/></g><g transform="translate(371.927 404.095)"><path d="M0,0c.285-.916.2-2.162-.69-2.517-.659-.263-1.386.121-1.977.513-1.175.778-2.294,1.641-3.347,2.578-.515-1.023-1.124-2-1.814-2.915-.578-.766-1.256-1.517-2.161-1.838-.904-.321-2.079-.058-2.508.801-.429.86.021,1.881.466,2.734.787,1.509,1.597,3.05,2.845,4.207C-5.587,6.902,-1.274,4.097,0,0" fill="#85e2ea"/></g><g id="eOfr6UERHB397" transform="translate(375.876915 399.448314)"><path d="M0,0c-15.391,1.902-25.89-.154-28.503-.753-.423-.104-.647-.165-.647-.165s-1.509-12.433,15.694-12.495C0.823,-13.461,1.482,-0.192,1.482,-0.192C0.985,-0.121,0.486,-0.06,0,0" transform="matrix(.878514 0 0 0.480451-15.803708-6.672089)" fill="#85e2ea"/></g><clipPath id="eOfr6UERHB399"><path d="M0,500h500v-500L0,0Z"/></clipPath></g></g><g><g clip-path="url(#eOfr6UERHB3103)"><clipPath id="eOfr6UERHB3103"><path d="M0,500h500v-500L0,0Z"/></clipPath></g></g></g>
<script><![CDATA[
!function(t,n){"object"==typeof exports&&"undefined"!=typeof module?module.exports=n():"function"==typeof __SVGATOR_DEFINE__&&__SVGATOR_DEFINE__.amd?__SVGATOR_DEFINE__(n):((t="undefined"!=typeof globalThis?globalThis:t||self).__SVGATOR_PLAYER__=t.__SVGATOR_PLAYER__||{},t.__SVGATOR_PLAYER__["5c7f360c"]=n())}(this,(function(){"use strict";function t(t,n){var e=Object.keys(t);if(Object.getOwnPropertySymbols){var r=Object.getOwnPropertySymbols(t);n&&(r=r.filter((function(n){return Object.getOwnPropertyDescriptor(t,n).enumerable}))),e.push.apply(e,r)}return e}function n(n){for(var e=1;e<arguments.length;e++){var r=null!=arguments[e]?arguments[e]:{};e%2?t(Object(r),!0).forEach((function(t){o(n,t,r[t])})):Object.getOwnPropertyDescriptors?Object.defineProperties(n,Object.getOwnPropertyDescriptors(r)):t(Object(r)).forEach((function(t){Object.defineProperty(n,t,Object.getOwnPropertyDescriptor(r,t))}))}return n}function e(t){return(e="function"==typeof Symbol&&"symbol"==typeof Symbol.iterator?function(t){return typeof t}:function(t){return t&&"function"==typeof Symbol&&t.constructor===Symbol&&t!==Symbol.prototype?"symbol":typeof t})(t)}function r(t,n){if(!(t instanceof n))throw new TypeError("Cannot call a class as a function")}function i(t,n){for(var e=0;e<n.length;e++){var r=n[e];r.enumerable=r.enumerable||!1,r.configurable=!0,"value"in r&&(r.writable=!0),Object.defineProperty(t,r.key,r)}}function u(t,n,e){return n&&i(t.prototype,n),e&&i(t,e),t}function o(t,n,e){return n in t?Object.defineProperty(t,n,{value:e,enumerable:!0,configurable:!0,writable:!0}):t[n]=e,t}function a(t){return(a=Object.setPrototypeOf?Object.getPrototypeOf:function(t){return t.__proto__||Object.getPrototypeOf(t)})(t)}function l(t,n){return(l=Object.setPrototypeOf||function(t,n){return t.__proto__=n,t})(t,n)}function s(){if("undefined"==typeof Reflect||!Reflect.construct)return!1;if(Reflect.construct.sham)return!1;if("function"==typeof Proxy)return!0;try{return Boolean.prototype.valueOf.call(Reflect.construct(Boolean,[],(function(){}))),!0}catch(t){return!1}}function f(t,n,e){return(f=s()?Reflect.construct:function(t,n,e){var r=[null];r.push.apply(r,n);var i=new(Function.bind.apply(t,r));return e&&l(i,e.prototype),i}).apply(null,arguments)}function c(t,n){if(n&&("object"==typeof n||"function"==typeof n))return n;if(void 0!==n)throw new TypeError("Derived constructors may only return object or undefined");return function(t){if(void 0===t)throw new ReferenceError("this hasn't been initialised - super() hasn't been called");return t}(t)}function h(t,n,e){return(h="undefined"!=typeof Reflect&&Reflect.get?Reflect.get:function(t,n,e){var r=function(t,n){for(;!Object.prototype.hasOwnProperty.call(t,n)&&null!==(t=a(t)););return t}(t,n);if(r){var i=Object.getOwnPropertyDescriptor(r,n);return i.get?i.get.call(e):i.value}})(t,n,e||t)}function v(t){return function(t){if(Array.isArray(t))return y(t)}(t)||function(t){if("undefined"!=typeof Symbol&&null!=t[Symbol.iterator]||null!=t["@@iterator"])return Array.from(t)}(t)||function(t,n){if(!t)return;if("string"==typeof t)return y(t,n);var e=Object.prototype.toString.call(t).slice(8,-1);"Object"===e&&t.constructor&&(e=t.constructor.name);if("Map"===e||"Set"===e)return Array.from(t);if("Arguments"===e||/^(?:Ui|I)nt(?:8|16|32)(?:Clamped)?Array$/.test(e))return y(t,n)}(t)||function(){throw new TypeError("Invalid attempt to spread non-iterable instance.\nIn order to be iterable, non-array objects must have a [Symbol.iterator]() method.")}()}function y(t,n){(null==n||n>t.length)&&(n=t.length);for(var e=0,r=new Array(n);e<n;e++)r[e]=t[e];return r}Number.isInteger||(Number.isInteger=function(t){return"number"==typeof t&&isFinite(t)&&Math.floor(t)===t}),Number.EPSILON||(Number.EPSILON=2220446049250313e-31);var g=d(Math.pow(10,-6));function d(t){var n=arguments.length>1&&void 0!==arguments[1]?arguments[1]:6;if(Number.isInteger(t))return t;var e=Math.pow(10,n);return Math.round((+t+Number.EPSILON)*e)/e}function p(t,n){var e=arguments.length>2&&void 0!==arguments[2]?arguments[2]:g;return Math.abs(t-n)<e}var m=Math.PI/180;function b(t){return t}function w(t,n,e){var r=1-e;return 3*e*r*(t*r+n*e)+e*e*e}function A(){var t=arguments.length>0&&void 0!==arguments[0]?arguments[0]:0,n=arguments.length>1&&void 0!==arguments[1]?arguments[1]:0,e=arguments.length>2&&void 0!==arguments[2]?arguments[2]:1,r=arguments.length>3&&void 0!==arguments[3]?arguments[3]:1;return t<0||t>1||e<0||e>1?null:p(t,n)&&p(e,r)?b:function(i){if(i<=0)return t>0?i*n/t:0===n&&e>0?i*r/e:0;if(i>=1)return e<1?1+(i-1)*(r-1)/(e-1):1===e&&t<1?1+(i-1)*(n-1)/(t-1):1;for(var u,o=0,a=1;o<a;){var l=w(t,e,u=(o+a)/2);if(p(i,l))break;l<i?o=u:a=u}return w(n,r,u)}}function _(){return 1}function x(t){return 1===t?1:0}function k(){var t=arguments.length>0&&void 0!==arguments[0]?arguments[0]:1,n=arguments.length>1&&void 0!==arguments[1]?arguments[1]:0;if(1===t){if(0===n)return x;if(1===n)return _}var e=1/t;return function(t){return t>=1?1:(t+=n*e)-t%e}}var S=Math.sin,O=Math.cos,j=Math.acos,E=Math.asin,M=Math.tan,P=Math.atan2,I=Math.PI/180,R=180/Math.PI,F=Math.sqrt,N=function(){function t(){var n=arguments.length>0&&void 0!==arguments[0]?arguments[0]:1,e=arguments.length>1&&void 0!==arguments[1]?arguments[1]:0,i=arguments.length>2&&void 0!==arguments[2]?arguments[2]:0,u=arguments.length>3&&void 0!==arguments[3]?arguments[3]:1,o=arguments.length>4&&void 0!==arguments[4]?arguments[4]:0,a=arguments.length>5&&void 0!==arguments[5]?arguments[5]:0;r(this,t),this.m=[n,e,i,u,o,a],this.i=null,this.w=null,this.s=null}return u(t,[{key:"determinant",get:function(){var t=this.m;return t[0]*t[3]-t[1]*t[2]}},{key:"isIdentity",get:function(){if(null===this.i){var t=this.m;this.i=1===t[0]&&0===t[1]&&0===t[2]&&1===t[3]&&0===t[4]&&0===t[5]}return this.i}},{key:"point",value:function(t,n){var e=this.m;return{x:e[0]*t+e[2]*n+e[4],y:e[1]*t+e[3]*n+e[5]}}},{key:"translateSelf",value:function(){var t=arguments.length>0&&void 0!==arguments[0]?arguments[0]:0,n=arguments.length>1&&void 0!==arguments[1]?arguments[1]:0;if(!t&&!n)return this;var e=this.m;return e[4]+=e[0]*t+e[2]*n,e[5]+=e[1]*t+e[3]*n,this.w=this.s=this.i=null,this}},{key:"rotateSelf",value:function(){var t=arguments.length>0&&void 0!==arguments[0]?arguments[0]:0;if(t%=360){var n=S(t*=I),e=O(t),r=this.m,i=r[0],u=r[1];r[0]=i*e+r[2]*n,r[1]=u*e+r[3]*n,r[2]=r[2]*e-i*n,r[3]=r[3]*e-u*n,this.w=this.s=this.i=null}return this}},{key:"scaleSelf",value:function(){var t=arguments.length>0&&void 0!==arguments[0]?arguments[0]:1,n=arguments.length>1&&void 0!==arguments[1]?arguments[1]:1;if(1!==t||1!==n){var e=this.m;e[0]*=t,e[1]*=t,e[2]*=n,e[3]*=n,this.w=this.s=this.i=null}return this}},{key:"skewSelf",value:function(t,n){if(n%=360,(t%=360)||n){var e=this.m,r=e[0],i=e[1],u=e[2],o=e[3];t&&(t=M(t*I),e[2]+=r*t,e[3]+=i*t),n&&(n=M(n*I),e[0]+=u*n,e[1]+=o*n),this.w=this.s=this.i=null}return this}},{key:"resetSelf",value:function(){var t=arguments.length>0&&void 0!==arguments[0]?arguments[0]:1,n=arguments.length>1&&void 0!==arguments[1]?arguments[1]:0,e=arguments.length>2&&void 0!==arguments[2]?arguments[2]:0,r=arguments.length>3&&void 0!==arguments[3]?arguments[3]:1,i=arguments.length>4&&void 0!==arguments[4]?arguments[4]:0,u=arguments.length>5&&void 0!==arguments[5]?arguments[5]:0,o=this.m;return o[0]=t,o[1]=n,o[2]=e,o[3]=r,o[4]=i,o[5]=u,this.w=this.s=this.i=null,this}},{key:"recomposeSelf",value:function(){var t=arguments.length>0&&void 0!==arguments[0]?arguments[0]:null,n=arguments.length>1&&void 0!==arguments[1]?arguments[1]:null,e=arguments.length>2&&void 0!==arguments[2]?arguments[2]:null,r=arguments.length>3&&void 0!==arguments[3]?arguments[3]:null,i=arguments.length>4&&void 0!==arguments[4]?arguments[4]:null;return this.isIdentity||this.resetSelf(),t&&(t.x||t.y)&&this.translateSelf(t.x,t.y),n&&this.rotateSelf(n),e&&(e.x&&this.skewSelf(e.x,0),e.y&&this.skewSelf(0,e.y)),!r||1===r.x&&1===r.y||this.scaleSelf(r.x,r.y),i&&(i.x||i.y)&&this.translateSelf(i.x,i.y),this}},{key:"decompose",value:function(){var t=arguments.length>0&&void 0!==arguments[0]?arguments[0]:0,n=arguments.length>1&&void 0!==arguments[1]?arguments[1]:0,e=this.m,r=e[0]*e[0]+e[1]*e[1],i=[[e[0],e[1]],[e[2],e[3]]],u=F(r);if(0===u)return{origin:{x:d(e[4]),y:d(e[5])},translate:{x:d(t),y:d(n)},scale:{x:0,y:0},skew:{x:0,y:0},rotate:0};i[0][0]/=u,i[0][1]/=u;var o=e[0]*e[3]-e[1]*e[2]<0;o&&(u=-u);var a=i[0][0]*i[1][0]+i[0][1]*i[1][1];i[1][0]-=i[0][0]*a,i[1][1]-=i[0][1]*a;var l=F(i[1][0]*i[1][0]+i[1][1]*i[1][1]);if(0===l)return{origin:{x:d(e[4]),y:d(e[5])},translate:{x:d(t),y:d(n)},scale:{x:d(u),y:0},skew:{x:0,y:0},rotate:0};i[1][0]/=l,i[1][1]/=l,a/=l;var s=0;return i[1][1]<0?(s=j(i[1][1])*R,i[0][1]<0&&(s=360-s)):s=E(i[0][1])*R,o&&(s=-s),a=P(a,F(i[0][0]*i[0][0]+i[0][1]*i[0][1]))*R,o&&(a=-a),{origin:{x:d(e[4]),y:d(e[5])},translate:{x:d(t),y:d(n)},scale:{x:d(u),y:d(l)},skew:{x:d(a),y:0},rotate:d(s)}}},{key:"clone",value:function(){var t=this.m;return new this.constructor(t[0],t[1],t[2],t[3],t[4],t[5])}},{key:"toString",value:function(){var t=arguments.length>0&&void 0!==arguments[0]?arguments[0]:" ";if(null===this.s){var n=this.m.map((function(t){return d(t)}));1===n[0]&&0===n[1]&&0===n[2]&&1===n[3]?this.s="translate("+n[4]+t+n[5]+")":this.s="matrix("+n.join(t)+")"}return this.s}}],[{key:"create",value:function(t){return t?Array.isArray(t)?f(this,v(t)):t instanceof this?t.clone():(new this).recomposeSelf(t.origin,t.rotate,t.skew,t.scale,t.translate):new this}}]),t}();function T(t,n,e){return t>=.5?e:n}function B(t,n,e){return 0===t||n===e?n:t*(e-n)+n}function q(t,n,e){var r=B(t,n,e);return r<=0?0:r}function D(t,n,e){var r=B(t,n,e);return r<=0?0:r>=1?1:r}function L(t,n,e){return 0===t?n:1===t?e:{x:B(t,n.x,e.x),y:B(t,n.y,e.y)}}function C(t,n,e){var r=function(t,n,e){return Math.round(B(t,n,e))}(t,n,e);return r<=0?0:r>=255?255:r}function V(t,n,e){return 0===t?n:1===t?e:{r:C(t,n.r,e.r),g:C(t,n.g,e.g),b:C(t,n.b,e.b),a:B(t,null==n.a?1:n.a,null==e.a?1:e.a)}}function G(t,n){for(var e=[],r=0;r<t;r++)e.push(n);return e}function z(t,n){if(--n<=0)return t;var e=(t=Object.assign([],t)).length;do{for(var r=0;r<e;r++)t.push(t[r])}while(--n>0);return t}var Y,$=function(){function t(n){r(this,t),this.list=n,this.length=n.length}return u(t,[{key:"setAttribute",value:function(t,n){for(var e=this.list,r=0;r<this.length;r++)e[r].setAttribute(t,n)}},{key:"removeAttribute",value:function(t){for(var n=this.list,e=0;e<this.length;e++)n[e].removeAttribute(t)}},{key:"style",value:function(t,n){for(var e=this.list,r=0;r<this.length;r++)e[r].style[t]=n}}]),t}(),U=/-./g,Q=function(t,n){return n.toUpperCase()};function H(t){return"function"==typeof t?t:T}function J(t){return t?"function"==typeof t?t:Array.isArray(t)?function(t){var n=arguments.length>1&&void 0!==arguments[1]?arguments[1]:b;if(!Array.isArray(t))return n;switch(t.length){case 1:return k(t[0])||n;case 2:return k(t[0],t[1])||n;case 4:return A(t[0],t[1],t[2],t[3])||n}return n}(t,null):function(t,n){var e=arguments.length>2&&void 0!==arguments[2]?arguments[2]:b;switch(t){case"linear":return b;case"steps":return k(n.steps||1,n.jump||0)||e;case"bezier":case"cubic-bezier":return A(n.x1||0,n.y1||0,n.x2||0,n.y2||0)||e}return e}(t.type,t.value,null):null}function Z(t,n,e){var r=arguments.length>3&&void 0!==arguments[3]&&arguments[3],i=n.length-1;if(t<=n[0].t)return r?[0,0,n[0].v]:n[0].v;if(t>=n[i].t)return r?[i,1,n[i].v]:n[i].v;var u,o=n[0],a=null;for(u=1;u<=i;u++){if(!(t>n[u].t)){a=n[u];break}o=n[u]}return null==a?r?[i,1,n[i].v]:n[i].v:o.t===a.t?r?[u,1,a.v]:a.v:(t=(t-o.t)/(a.t-o.t),o.e&&(t=o.e(t)),r?[u,t,e(t,o.v,a.v)]:e(t,o.v,a.v))}function K(t,n){var e=arguments.length>2&&void 0!==arguments[2]?arguments[2]:null;return t&&t.length?"function"!=typeof n?null:("function"!=typeof e&&(e=null),function(r){var i=Z(r,t,n);return null!=i&&e&&(i=e(i)),i}):null}function W(t,n){return t.t-n.t}function X(t,n,r,i,u){var o,a="@"===r[0],l="#"===r[0],s=Y[r],f=T;switch(a?(o=r.substr(1),r=o.replace(U,Q)):l&&(r=r.substr(1)),e(s)){case"function":if(f=s(i,u,Z,J,r,a,n,t),l)return f;break;case"string":f=K(i,H(s));break;case"object":if((f=K(i,H(s.i),s.f))&&"function"==typeof s.u)return s.u(n,f,r,a,t)}return f?function(t,n,e){if(arguments.length>3&&void 0!==arguments[3]&&arguments[3])return t instanceof $?function(r){return t.style(n,e(r))}:function(r){return t.style[n]=e(r)};if(Array.isArray(n)){var r=n.length;return function(i){var u=e(i);if(null==u)for(var o=0;o<r;o++)t[o].removeAttribute(n);else for(var a=0;a<r;a++)t[a].setAttribute(n,u)}}return function(r){var i=e(r);null==i?t.removeAttribute(n):t.setAttribute(n,i)}}(n,r,f,a):null}function tt(t,n,r,i){if(!i||"object"!==e(i))return null;var u=null,o=null;return Array.isArray(i)?o=function(t){if(!t||!t.length)return null;for(var n=0;n<t.length;n++)t[n].e&&(t[n].e=J(t[n].e));return t.sort(W)}(i):(o=i.keys,u=i.data||null),o?X(t,n,r,o,u):null}function nt(t,n,e){if(!e)return null;var r=[];for(var i in e)if(e.hasOwnProperty(i)){var u=tt(t,n,i,e[i]);u&&r.push(u)}return r.length?r:null}function et(t,n){if(!n.settings.duration||n.settings.duration<0)return null;var e,r,i,u,o,a=function(t,n){if(!n)return null;var e=[];if(Array.isArray(n))for(var r=n.length,i=0;i<r;i++){var u=n[i];if(2===u.length){var o=null;if("string"==typeof u[0])o=t.getElementById(u[0]);else if(Array.isArray(u[0])){o=[];for(var a=0;a<u[0].length;a++)if("string"==typeof u[0][a]){var l=t.getElementById(u[0][a]);l&&o.push(l)}o=o.length?1===o.length?o[0]:new $(o):null}if(o){var s=nt(t,o,u[1]);s&&(e=e.concat(s))}}}else for(var f in n)if(n.hasOwnProperty(f)){var c=t.getElementById(f);if(c){var h=nt(t,c,n[f]);h&&(e=e.concat(h))}}return e.length?e:null}(t,n.elements);return a?(e=a,r=n.settings,i=r.duration,u=e.length,o=null,function(t,n){var a=r.iterations||1/0,l=(r.alternate&&a%2==0)^r.direction>0?i:0,s=t%i,f=1+(t-s)/i;n*=r.direction,r.alternate&&f%2==0&&(n=-n);var c=!1;if(f>a)s=l,c=!0,-1===r.fill&&(s=r.direction>0?0:i);else if(n<0&&(s=i-s),s===o)return!1;o=s;for(var h=0;h<u;h++)e[h](s);return c}):null}function rt(t,n){if(Y=n,!t||!t.root||!Array.isArray(t.animations))return null;var e=function(t){for(var n=document.getElementsByTagName("svg"),e=0;e<n.length;e++)if(n[e].id===t.root&&!n[e].svgatorAnimation)return n[e].svgatorAnimation=!0,n[e];return null}(t);if(!e)return null;var r=t.animations.map((function(t){return et(e,t)})).filter((function(t){return!!t}));return r.length?{svg:e,animations:r,animationSettings:t.animationSettings,options:t.options||void 0}:null}function it(t){var n=arguments.length>1&&void 0!==arguments[1]?arguments[1]:null,e=arguments.length>2&&void 0!==arguments[2]?arguments[2]:Number,r=arguments.length>3&&void 0!==arguments[3]?arguments[3]:"undefined"!=typeof BigInt&&BigInt,i="0x"+(t.replace(/[^0-9a-fA-F]+/g,"")||27);return n&&r&&e.isSafeInteger&&!e.isSafeInteger(+i)?e(r(i))%n+n:+i}function ut(t,n,e){return!t||!e||n>t.length?t:t.substring(0,n)+ut(t.substring(n+1),e,e)}function ot(t){var n=arguments.length>1&&void 0!==arguments[1]?arguments[1]:27;return!t||t%n?t%n:[0,1].includes(n)?n:ot(t/n,n)}function at(t,n,e){if(t&&t.length){var r=it(e),i=ot(r)+5,u=ut(t,ot(r,5),i);return u=u.replace(/\x7c$/g,"==").replace(/\x2f$/g,"="),u=function(t,n,e){var r=+("0x"+t.substring(0,4));t=t.substring(4);for(var i=it(n,r)%r+e%27,u=[],o=0;o<t.length;o+=2)if("|"!==t[o]){var a=+("0x"+t[o]+t[o+1])-i;u.push(a)}else{var l=+("0x"+t.substring(o+1,o+1+4))-i;o+=3,u.push(l)}return String.fromCharCode.apply(String,u)}(u=(u=atob(u)).replace(/[\x41-\x5A]/g,""),n,r),u=JSON.parse(u)}}var lt=[{key:"alternate",def:!1},{key:"fill",def:1},{key:"iterations",def:0},{key:"direction",def:1},{key:"speed",def:1},{key:"fps",def:100}],st=function(){function t(n,e){var i=this,u=arguments.length>2&&void 0!==arguments[2]?arguments[2]:null;r(this,t),this._id=0,this._running=!1,this._rollingBack=!1,this._animations=n,this._settings=e,(!u||u<"2022-05-02")&&delete this._settings.speed,lt.forEach((function(t){i._settings[t.key]=i._settings[t.key]||t.def})),this.duration=e.duration,this.offset=e.offset||0,this.rollbackStartOffset=0}return u(t,[{key:"alternate",get:function(){return this._settings.alternate}},{key:"fill",get:function(){return this._settings.fill}},{key:"iterations",get:function(){return this._settings.iterations}},{key:"direction",get:function(){return this._settings.direction}},{key:"speed",get:function(){return this._settings.speed}},{key:"fps",get:function(){return this._settings.fps}},{key:"maxFiniteDuration",get:function(){return this.iterations>0?this.iterations*this.duration:this.duration}},{key:"_apply",value:function(t){for(var n=arguments.length>1&&void 0!==arguments[1]?arguments[1]:{},e=this._animations,r=e.length,i=0,u=0;u<r;u++)n[u]?i++:(n[u]=e[u](t,1),n[u]&&i++);return i}},{key:"_rollback",value:function(t){var n=this,e=1/0,r=null;this.rollbackStartOffset=t,this._rollingBack=!0,this._running=!0;this._id=window.requestAnimationFrame((function i(u){if(n._rollingBack){null==r&&(r=u);var o=Math.round(t-(u-r)*n.speed);if(o>n.duration&&e!==1/0){var a=!!n.alternate&&o/n.duration%2>1,l=o%n.duration;o=(l+=a?n.duration:0)||n.duration}var s=(n.fps?1e3/n.fps:0)*n.speed,f=Math.max(0,o);f<=e-s&&(n.offset=f,e=f,n._apply(f));var c=n.iterations>0&&-1===n.fill&&o>=n.maxFiniteDuration;(o<=0||n.offset<o||c)&&n.stop(),n._id=window.requestAnimationFrame(i)}}))}},{key:"_start",value:function(){var t=this,n=arguments.length>0&&void 0!==arguments[0]?arguments[0]:0,e=-1/0,r=null,i={};this._running=!0;var u=function u(o){null==r&&(r=o);var a=Math.round((o-r)*t.speed+n),l=(t.fps?1e3/t.fps:0)*t.speed;if(a>=e+l&&!t._rollingBack&&(t.offset=a,e=a,t._apply(a,i)===t._animations.length))return void t.pause(!0);t._id=window.requestAnimationFrame(u)};this._id=window.requestAnimationFrame(u)}},{key:"_pause",value:function(){this._id&&window.cancelAnimationFrame(this._id),this._running=!1}},{key:"play",value:function(){if(!this._running)return this._rollingBack?this._rollback(this.offset):this._start(this.offset)}},{key:"stop",value:function(){this._pause(),this.offset=0,this.rollbackStartOffset=0,this._rollingBack=!1,this._apply(0)}},{key:"reachedToEnd",value:function(){return this.iterations>0&&this.offset>=this.iterations*this.duration}},{key:"restart",value:function(){var t=arguments.length>0&&void 0!==arguments[0]&&arguments[0];this.stop(t),this.play(t)}},{key:"pause",value:function(){this._pause()}},{key:"reverse",value:function(){this.direction=-this.direction}}],[{key:"build",value:function(t,n){delete t.animationSettings,t.options=at(t.options,t.root,"5c7f360c"),t.animations.map((function(n){n.settings=at(n.s,t.root,"5c7f360c"),delete n.s,t.animationSettings||(t.animationSettings=n.settings)}));var e=t.version;if(!(t=rt(t,n)))return null;var r=t.options||{},i=new this(t.animations,t.animationSettings,e);return{el:t.svg,options:r,player:i}}},{key:"push",value:function(t){return this.build(t)}},{key:"init",value:function(){var t=this,n=window.__SVGATOR_PLAYER__&&window.__SVGATOR_PLAYER__["5c7f360c"];Array.isArray(n)&&n.splice(0).forEach((function(n){return t.build(n)}))}}]),t}();function ft(t){return d(t)+""}function ct(t){var n=arguments.length>1&&void 0!==arguments[1]?arguments[1]:" ";return t&&t.length?t.map(ft).join(n):""}function ht(t){if(!t)return"transparent";if(null==t.a||t.a>=1){var n=function(t){return 1===(t=parseInt(t).toString(16)).length?"0"+t:t},e=function(t){return t.charAt(0)===t.charAt(1)},r=n(t.r),i=n(t.g),u=n(t.b);return e(r)&&e(i)&&e(u)&&(r=r.charAt(0),i=i.charAt(0),u=u.charAt(0)),"#"+r+i+u}return"rgba("+t.r+","+t.g+","+t.b+","+t.a+")"}function vt(t){return t?"url(#"+t+")":"none"}!function(){for(var t=0,n=["ms","moz","webkit","o"],e=0;e<n.length&&!window.requestAnimationFrame;++e)window.requestAnimationFrame=window[n[e]+"RequestAnimationFrame"],window.cancelAnimationFrame=window[n[e]+"CancelAnimationFrame"]||window[n[e]+"CancelRequestAnimationFrame"];window.requestAnimationFrame||(window.requestAnimationFrame=function(n){var e=Date.now(),r=Math.max(0,16-(e-t)),i=window.setTimeout((function(){n(e+r)}),r);return t=e+r,i},window.cancelAnimationFrame=window.clearTimeout)}();var yt={f:null,i:function(t,n,e){return 0===t?n:1===t?e:{x:q(t,n.x,e.x),y:q(t,n.y,e.y)}},u:function(t,n){return function(e){var r=n(e);t.setAttribute("rx",ft(r.x)),t.setAttribute("ry",ft(r.y))}}},gt={f:null,i:function(t,n,e){return 0===t?n:1===t?e:{width:q(t,n.width,e.width),height:q(t,n.height,e.height)}},u:function(t,n){return function(e){var r=n(e);t.setAttribute("width",ft(r.width)),t.setAttribute("height",ft(r.height))}}};Object.freeze({M:2,L:2,Z:0,H:1,V:1,C:6,Q:4,T:2,S:4,A:7});var dt={},pt=null;function mt(t){var n=function(){if(pt)return pt;if("object"!==("undefined"==typeof document?"undefined":e(document))||!document.createElementNS)return{};var t=document.createElementNS("http://www.w3.org/2000/svg","svg");return t&&t.style?(t.style.position="absolute",t.style.opacity="0.01",t.style.zIndex="-9999",t.style.left="-9999px",t.style.width="1px",t.style.height="1px",pt={svg:t}):{}}().svg;if(!n)return function(t){return null};var r=document.createElementNS(n.namespaceURI,"path");r.setAttributeNS(null,"d",t),r.setAttributeNS(null,"fill","none"),r.setAttributeNS(null,"stroke","none"),n.appendChild(r);var i=r.getTotalLength();return function(t){var n=r.getPointAtLength(i*t);return{x:n.x,y:n.y}}}function bt(t){return dt[t]?dt[t]:dt[t]=mt(t)}function wt(t,n,e,r){if(!t||!r)return!1;var i=["M",t.x,t.y];if(n&&e&&(i.push("C"),i.push(n.x),i.push(n.y),i.push(e.x),i.push(e.y)),n?!e:e){var u=n||e;i.push("Q"),i.push(u.x),i.push(u.y)}return n||e||i.push("L"),i.push(r.x),i.push(r.y),i.join(" ")}function At(t,n,e,r){var i=arguments.length>4&&void 0!==arguments[4]?arguments[4]:1,u=wt(t,n,e,r),o=bt(u);try{return o(i)}catch(t){return null}}function _t(t,n,e){return t+(n-t)*e}function xt(t,n,e){var r=arguments.length>3&&void 0!==arguments[3]&&arguments[3],i={x:_t(t.x,n.x,e),y:_t(t.y,n.y,e)};return r&&(i.a=kt(t,n)),i}function kt(t,n){return Math.atan2(n.y-t.y,n.x-t.x)}function St(t,n,e,r){var i=1-r;return i*i*t+2*i*r*n+r*r*e}function Ot(t,n,e,r){return 2*(1-r)*(n-t)+2*r*(e-n)}function jt(t,n,e,r){var i=arguments.length>4&&void 0!==arguments[4]&&arguments[4],u=At(t,n,null,e,r);return u||(u={x:St(t.x,n.x,e.x,r),y:St(t.y,n.y,e.y,r)}),i&&(u.a=Et(t,n,e,r)),u}function Et(t,n,e,r){return Math.atan2(Ot(t.y,n.y,e.y,r),Ot(t.x,n.x,e.x,r))}function Mt(t,n,e,r,i){var u=i*i;return i*u*(r-t+3*(n-e))+3*u*(t+e-2*n)+3*i*(n-t)+t}function Pt(t,n,e,r,i){var u=1-i;return 3*(u*u*(n-t)+2*u*i*(e-n)+i*i*(r-e))}function It(t,n,e,r,i){var u=arguments.length>5&&void 0!==arguments[5]&&arguments[5],o=At(t,n,e,r,i);return o||(o={x:Mt(t.x,n.x,e.x,r.x,i),y:Mt(t.y,n.y,e.y,r.y,i)}),u&&(o.a=Rt(t,n,e,r,i)),o}function Rt(t,n,e,r,i){return Math.atan2(Pt(t.y,n.y,e.y,r.y,i),Pt(t.x,n.x,e.x,r.x,i))}function Ft(t,n,e){var r=arguments.length>3&&void 0!==arguments[3]&&arguments[3];if(Tt(n)){if(Bt(e))return jt(n,e.start,e,t,r)}else if(Tt(e)){if(qt(n))return jt(n,n.end,e,t,r)}else{if(qt(n))return Bt(e)?It(n,n.end,e.start,e,t,r):jt(n,n.end,e,t,r);if(Bt(e))return jt(n,e.start,e,t,r)}return xt(n,e,t,r)}function Nt(t,n,e){var r=Ft(t,n,e,!0);return r.a=function(t){return arguments.length>1&&void 0!==arguments[1]&&arguments[1]?t+Math.PI:t}(r.a)/m,r}function Tt(t){return!t.type||"corner"===t.type}function Bt(t){return null!=t.start&&!Tt(t)}function qt(t){return null!=t.end&&!Tt(t)}var Dt=new N;var Lt={f:ft,i:B},Ct={f:ft,i:D};function Vt(t,n,e){return t.map((function(t){return function(t,n,e){var r=t.v;if(!r||"g"!==r.t||r.s||!r.v||!r.r)return t;var i=e.getElementById(r.r),u=i&&i.querySelectorAll("stop")||[];return r.s=r.v.map((function(t,n){var e=u[n]&&u[n].getAttribute("offset");return{c:t,o:e=d(parseInt(e)/100)}})),delete r.v,t}(t,0,e)}))}var Gt={gt:"gradientTransform",c:{x:"cx",y:"cy"},rd:"r",f:{x:"x1",y:"y1"},to:{x:"x2",y:"y2"}};function zt(t,n,r,i,u,o,a,l){return Vt(t,0,l),n=function(t,n,e){for(var r,i,u,o=t.length-1,a={},l=0;l<=o;l++)(r=t[l]).e&&(r.e=n(r.e)),r.v&&"g"===(i=r.v).t&&i.r&&(u=e.getElementById(i.r))&&(a[i.r]={e:u,s:u.querySelectorAll("stop")});return a}(t,i,l),function(i){var u=r(i,t,Yt);if(!u)return"none";if("c"===u.t)return ht(u.v);if("g"===u.t){if(!n[u.r])return vt(u.r);var o=n[u.r];return function(t,n){for(var e=t.s,r=e.length;r<n.length;r++){var i=e[e.length-1].cloneNode();i.id=Qt(i.id),t.e.appendChild(i),e=t.s=t.e.querySelectorAll("stop")}for(var u=0,o=e.length,a=n.length-1;u<o;u++)e[u].setAttribute("stop-color",ht(n[Math.min(u,a)].c)),e[u].setAttribute("offset",n[Math.min(u,a)].o)}(o,u.s),Object.keys(Gt).forEach((function(t){if(void 0!==u[t])if("object"!==e(Gt[t])){var n,r="gt"===t?(n=u[t],Array.isArray(n)?"matrix("+n.join(" ")+")":""):u[t],i=Gt[t];o.e.setAttribute(i,r)}else Object.keys(Gt[t]).forEach((function(n){if(void 0!==u[t][n]){var e=u[t][n],r=Gt[t][n];o.e.setAttribute(r,e)}}))})),vt(u.r)}return"none"}}function Yt(t,e,r){if(0===t)return e;if(1===t)return r;if(e&&r){var i=e.t;if(i===r.t)switch(e.t){case"c":return{t:i,v:V(t,e.v,r.v)};case"g":if(e.r===r.r){var u={t:i,s:$t(t,e.s,r.s),r:e.r};return e.gt&&r.gt&&(u.gt=function(t,n,e){var r=n.length;if(r!==e.length)return T(t,n,e);for(var i=new Array(r),u=0;u<r;u++)i[u]=B(t,n[u],e[u]);return i}(t,e.gt,r.gt)),e.c?(u.c=L(t,e.c,r.c),u.rd=q(t,e.rd,r.rd)):e.f&&(u.f=L(t,e.f,r.f),u.to=L(t,e.to,r.to)),u}}if("c"===e.t&&"g"===r.t||"c"===r.t&&"g"===e.t){var o="c"===e.t?e:r,a="g"===e.t?n({},e):n({},r),l=a.s.map((function(t){return{c:o.v,o:t.o}}));return a.s="c"===e.t?$t(t,l,a.s):$t(t,a.s,l),a}}return T(t,e,r)}function $t(t,n,e){if(n.length===e.length)return n.map((function(n,r){return Ut(t,n,e[r])}));for(var r=Math.max(n.length,e.length),i=[],u=0;u<r;u++){var o=Ut(t,n[Math.min(u,n.length-1)],e[Math.min(u,e.length-1)]);i.push(o)}return i}function Ut(t,n,e){return{o:D(t,n.o,e.o||0),c:V(t,n.c,e.c||{})}}function Qt(t){return t.replace(/-fill-([0-9]+)$/,(function(t,n){return"-fill-"+(+n+1)}))}var Ht={fill:zt,"fill-opacity":Ct,stroke:zt,"stroke-opacity":Ct,"stroke-width":Lt,"stroke-dashoffset":{f:ft,i:B},"stroke-dasharray":{f:function(t){var n=arguments.length>1&&void 0!==arguments[1]?arguments[1]:" ";return t&&t.length>0&&(t=t.map((function(t){return d(t,4)}))),ct(t,n)},i:function(t,n,e){var r,i,u,o=n.length,a=e.length;if(o!==a)if(0===o)n=G(o=a,0);else if(0===a)a=o,e=G(o,0);else{var l=(u=(r=o)*(i=a)/function(t,n){for(var e;n;)e=n,n=t%n,t=e;return t||1}(r,i))<0?-u:u;n=z(n,Math.floor(l/o)),e=z(e,Math.floor(l/a)),o=a=l}for(var s=[],f=0;f<o;f++)s.push(d(q(t,n[f],e[f])));return s}},opacity:Ct,transform:function(t,n,r,i){if(!(t=function(t,n){if(!t||"object"!==e(t))return null;var r=!1;for(var i in t)t.hasOwnProperty(i)&&(t[i]&&t[i].length?(t[i].forEach((function(t){t.e&&(t.e=n(t.e))})),r=!0):delete t[i]);return r?t:null}(t,i)))return null;var u=function(e,i,u){var o=arguments.length>3&&void 0!==arguments[3]?arguments[3]:null;return t[e]?r(i,t[e],u):n&&n[e]?n[e]:o};return n&&n.a&&t.o?function(n){var e=r(n,t.o,Nt);return Dt.recomposeSelf(e,u("r",n,B,0)+e.a,u("k",n,L),u("s",n,L),u("t",n,L)).toString()}:function(t){return Dt.recomposeSelf(u("o",t,Ft,null),u("r",t,B,0),u("k",t,L),u("s",t,L),u("t",t,L)).toString()}},r:Lt,"#size":gt,"#radius":yt,_:function(t,n){if(Array.isArray(t))for(var e=0;e<t.length;e++)this[t[e]]=n;else this[t]=n}},Jt=function(t){!function(t,n){if("function"!=typeof n&&null!==n)throw new TypeError("Super expression must either be null or a function");t.prototype=Object.create(n&&n.prototype,{constructor:{value:t,writable:!0,configurable:!0}}),n&&l(t,n)}(o,t);var n,e,i=(n=o,e=s(),function(){var t,r=a(n);if(e){var i=a(this).constructor;t=Reflect.construct(r,arguments,i)}else t=r.apply(this,arguments);return c(this,t)});function o(){return r(this,o),i.apply(this,arguments)}return u(o,null,[{key:"build",value:function(t){var n=h(a(o),"build",this).call(this,t,Ht);if(!n)return null;n.el,n.options,function(t,n,e){t.play()}(n.player)}}]),o}(st);return Jt.init(),Jt}));
(function(s,i,o,w,d,a,b){w[o]=w[o]||{};w[o][s]=w[o][s]||[];w[o][s].push(i);})('5c7f360c',{"root":"eOfr6UERHB31","version":"2022-05-04","animations":[{"elements":{"eOfr6UERHB397":{"transform":{"data":{"o":{"x":347.905081,"y":389.743687,"type":"corner"},"t":{"x":27.971834,"y":9.704627}},"keys":{"s":[{"t":0,"v":{"x":1,"y":1}},{"t":300,"v":{"x":0.5,"y":0.5}},{"t":700,"v":{"x":1,"y":1.642254}},{"t":1100,"v":{"x":1,"y":1}},{"t":1400,"v":{"x":0.5,"y":0.5}},{"t":1700,"v":{"x":1,"y":1}},{"t":2000,"v":{"x":1,"y":1.642254}},{"t":2200,"v":{"x":1,"y":1}},{"t":2500,"v":{"x":0.5,"y":0.5}},{"t":2700,"v":{"x":1,"y":1}},{"t":3000,"v":{"x":1,"y":1.642254}}]}}}},"s":"MLDA1ZDkxMzg3YThiSTDg4Nzc4YTdmODU4NFkWzODUwNDk0NjQ2NDY0CMjM4N2FQN2Y4ODdiNCzk4YTdmODU4NDM4NTNA0NzQyMzg3ZjhhN2IO4ODc3OGE3Zjg1Tjg0XODkzODUwNDY0MkczOMDdjUzdmODI4MjM4NTDA0NzQyMzg3NzgyOGEO3Yjg4ODQ3NzhhN2IzQODUwN2M3NzgyODk3YSjQyMzg4OTg2N2I3YjHdhMzhCNTBPNDc0MjMK4N2M4NkU4OTM4NTA0SNzQ2NDY5Mw|"}],"options":"MXDAxMDg4QjJmODBVODRE2ZTdmODEyZjQ3MmYJ3OUU3YzZlNzEyZjhhYSw|"},'__SVGATOR_PLAYER__',window,document)
]]></script>
</svg>
